<svg width="10" height="11" viewBox="0 0 10 11" fill="none" xmlns="http://www.w3.org/2000/svg">
<path fill-rule="evenodd" clip-rule="evenodd" d="M4.29289 0.792893C4.68342 0.402369 5.31658 0.402369 5.70711 0.792893L9.70711 4.79289C10.0976 5.18342 10.0976 5.81658 9.70711 6.20711L5.70711 10.2071C5.31658 10.5976 4.68342 10.5976 4.29289 10.2071C3.90237 9.81658 3.90237 9.18342 4.29289 8.79289L7.58579 5.5L4.29289 2.20711C3.90237 1.81658 3.90237 1.18342 4.29289 0.792893Z" fill="black"/>
<path fill-rule="evenodd" clip-rule="evenodd" d="M0 5.5C0 4.94772 0.447715 4.5 1 4.5H9C9.55229 4.5 10 4.94772 10 5.5C10 6.05228 9.55229 6.5 9 6.5H1C0.447715 6.5 0 6.05228 0 5.5Z" fill="black"/>
</svg>
