<svg width="27" height="27" viewBox="0 0 27 27" fill="none" xmlns="http://www.w3.org/2000/svg">
<path d="M8.04102 21.2497C6.62018 21.2497 5.4706 22.4122 5.4706 23.833C5.4706 25.2538 6.62018 26.4163 8.04102 26.4163C9.46185 26.4163 10.6243 25.2538 10.6243 23.833C10.6243 22.4122 9.46185 21.2497 8.04102 21.2497ZM0.291016 0.583008V3.16634H2.87435L7.52435 12.9701L5.7806 16.1347C5.57393 16.4963 5.45768 16.9226 5.45768 17.3747C5.45768 18.7955 6.62018 19.958 8.04102 19.958H23.541V17.3747H8.58352C8.40268 17.3747 8.2606 17.2326 8.2606 17.0518L8.29935 16.8968L9.46185 14.7913H19.0848C20.0535 14.7913 20.906 14.2618 21.3452 13.4609L25.9693 5.07801C26.0727 4.89717 26.1244 4.67759 26.1244 4.45801C26.1244 3.74759 25.5431 3.16634 24.8327 3.16634H5.72893L4.51477 0.583008H0.291016ZM20.9577 21.2497C19.5368 21.2497 18.3873 22.4122 18.3873 23.833C18.3873 25.2538 19.5368 26.4163 20.9577 26.4163C22.3785 26.4163 23.541 25.2538 23.541 23.833C23.541 22.4122 22.3785 21.2497 20.9577 21.2497Z" fill="#716969"/>
</svg>
