<svg width="96" height="96" viewBox="0 0 96 96" fill="none" xmlns="http://www.w3.org/2000/svg">
<path opacity="0.5" d="M96 48C96 74.5097 74.5097 96 48 96C21.4903 96 0 74.5097 0 48C0 21.4903 21.4903 0 48 0C74.5097 0 96 21.4903 96 48ZM4.70166 48C4.70166 71.913 24.087 91.2983 48 91.2983C71.913 91.2983 91.2983 71.913 91.2983 48C91.2983 24.087 71.913 4.70166 48 4.70166C24.087 4.70166 4.70166 24.087 4.70166 48Z" fill="#F68080"/>
<circle cx="47.5" cy="47.5" r="34.5" stroke="#FDD8D8" stroke-width="2" stroke-linecap="round"/>
<path d="M59.3377 58.1459H52.1042C51.7049 58.1459 51.3809 57.8218 51.3809 57.4226C51.3809 57.0233 51.7049 56.6992 52.1042 56.6992H59.3377C60.5342 56.6992 61.5078 55.7256 61.5078 54.5291V53.0824C61.5078 52.6831 61.8319 52.3591 62.2312 52.3591H63.6648C64.0641 52.3591 64.3882 52.035 64.3882 51.6357V42.9555C64.3882 42.5562 64.0641 42.2321 63.6648 42.2321H62.2312C61.8319 42.2321 61.5078 41.9081 61.5078 41.5088V40.0621C61.5078 38.8657 60.5342 37.892 59.3377 37.892H54.9976C54.5983 37.892 54.2743 37.568 54.2743 37.1687C54.2743 36.7694 54.5983 36.4453 54.9976 36.4453H59.3377C61.3313 36.4453 62.9545 38.0685 62.9545 40.0621V40.7854H63.6648C64.8613 40.7854 65.8349 41.7591 65.8349 42.9555V51.6357C65.8349 52.8322 64.8613 53.8058 63.6648 53.8058H62.9545V54.5291C62.9545 56.5227 61.3313 58.1459 59.3377 58.1459Z" fill="#FF4948"/>
<path d="M40.4036 58.1459H34.6168C32.6232 58.1459 31 56.5227 31 54.5291V40.0621C31 38.0685 32.6232 36.4453 34.6168 36.4453H44.7437C45.143 36.4453 45.4671 36.7694 45.4671 37.1687C45.4671 37.568 45.143 37.892 44.7437 37.892H34.6168C33.4203 37.892 32.4467 38.8657 32.4467 40.0621V54.5291C32.4467 55.7256 33.4203 56.6992 34.6168 56.6992H40.4036C40.8029 56.6992 41.1269 57.0233 41.1269 57.4226C41.1269 57.8218 40.8029 58.1459 40.4036 58.1459Z" fill="#FF4948"/>
<path d="M44.5218 61.0394C44.4075 61.0394 44.2904 61.0119 44.1833 60.9554C43.8723 60.7905 43.7247 60.4245 43.8361 60.0889L46.8655 50.9124H41.1901C40.921 50.9124 40.675 50.7634 40.5492 50.5247C40.4248 50.286 40.4421 49.9981 40.5955 49.7767L50.6154 35.3097C50.8121 35.0261 51.1868 34.9248 51.4993 35.0579C51.8161 35.1968 51.9912 35.5397 51.9174 35.8768L49.8804 45.1256H55.6571C55.932 45.1256 56.1837 45.2818 56.3067 45.5292C56.4282 45.7766 56.3979 46.0717 56.23 46.2902L45.0947 60.7572C44.9544 60.941 44.7403 61.0394 44.5218 61.0394ZM42.5717 49.4657H47.8666C48.0995 49.4657 48.3165 49.5771 48.4525 49.7652C48.5885 49.9532 48.6261 50.1948 48.5524 50.4162L46.5414 56.5054L54.1873 46.5723H48.9806C48.7621 46.5723 48.5538 46.4725 48.4164 46.3017C48.2789 46.131 48.2269 45.9068 48.2731 45.6927L49.7141 39.1521L42.5717 49.4657Z" fill="#FF4948"/>
</svg>
