<svg width="96" height="96" viewBox="0 0 96 96" fill="none" xmlns="http://www.w3.org/2000/svg">
<path d="M57.6722 53.2339L50.2181 47.5L57.6722 41.7661C58.2456 41.3223 58.5817 40.6384 58.5828 39.9133C58.5795 39.1882 58.2414 38.5053 57.6668 38.063L47.7501 30.4797C47.7233 30.4593 47.6948 30.4412 47.6649 30.4255C47.2756 30.1488 46.8099 30.0001 46.3322 30C45.0223 30.0475 43.9883 31.129 43.9994 32.4396V42.6442L39.7389 39.0423C39.4945 38.8441 39.1803 38.7529 38.8678 38.7896C38.5553 38.8264 38.2707 38.9877 38.0789 39.2371L36.6582 41.0845C36.2763 41.5849 36.3582 42.2976 36.8437 42.6983L42.6094 47.5L36.8513 52.2957C36.3605 52.6952 36.2751 53.4121 36.6582 53.9158L38.0789 55.7629C38.272 56.014 38.5589 56.1758 38.8737 56.2111C39.1885 56.2464 39.5042 56.1522 39.7481 55.95L43.9995 52.3558V62.5604C43.9883 63.8711 45.0226 64.9526 46.3325 65C46.8094 64.9998 47.2746 64.8515 47.6635 64.5754C47.6939 64.5595 47.7229 64.5411 47.7501 64.5204L57.6668 56.937C58.2432 56.4962 58.5817 55.8124 58.5828 55.0868C58.5839 54.3612 58.2473 53.6764 57.6722 53.2339ZM56.9581 56.0102L47.1126 63.5391C47.0861 63.5536 47.0607 63.5701 47.0366 63.5884C46.8356 63.7456 46.588 63.8317 46.3328 63.8333C45.6714 63.7783 45.1634 63.2241 45.1661 62.5604V51.0988C45.1661 50.8718 45.0344 50.6653 44.8283 50.5697C44.6224 50.4742 44.3796 50.5068 44.2062 50.6534L39.0035 55.0515L37.5904 53.1984L43.8943 47.9484C44.0274 47.8375 44.1043 47.6732 44.1043 47.5001C44.1043 47.3269 44.0274 47.1626 43.8943 47.0518L37.5828 41.7958L38.9949 39.941L44.2062 44.3467C44.3796 44.4933 44.6224 44.526 44.8283 44.4304C45.0343 44.3348 45.1661 44.1283 45.166 43.9012V32.4396C45.1633 31.776 45.6711 31.2219 46.3324 31.1667C46.5878 31.1682 46.8354 31.2544 47.0365 31.4116C47.0603 31.4298 47.0854 31.4461 47.1117 31.4604L56.9581 38.9899C57.2463 39.2103 57.4156 39.5523 57.4161 39.915C57.4166 40.2779 57.2483 40.6203 56.9607 40.8415L48.9057 47.0378C48.7622 47.1482 48.6781 47.319 48.6781 47.5001C48.6781 47.6812 48.7622 47.8519 48.9057 47.9624L56.9607 54.1586C57.2483 54.3798 57.4166 54.7222 57.4161 55.0851C57.4156 55.4478 57.2463 55.7898 56.9581 56.0102Z" fill="#FF4948"/>
<path d="M48.0834 44.5739C48.4056 44.5739 48.6667 44.3128 48.6667 43.9906V37.0547L52.4159 39.9217L50.0609 41.7333C49.8071 41.9302 49.7602 42.2953 49.9562 42.5499C50.1521 42.8046 50.517 42.8528 50.7724 42.6578L53.7301 40.3826C53.8739 40.272 53.958 40.1008 53.9577 39.9194C53.9574 39.7381 53.8728 39.5671 53.7287 39.4569L48.4377 35.4109C48.2614 35.2762 48.0239 35.2531 47.8249 35.3514C47.626 35.4497 47.5001 35.6524 47.5 35.8743V43.9906C47.5001 44.3128 47.7612 44.5739 48.0834 44.5739Z" fill="#FF4948"/>
<path d="M53.7301 54.6171L50.7724 52.3419C50.517 52.1469 50.152 52.1951 49.9561 52.4498C49.7602 52.7044 49.807 53.0695 50.0609 53.2665L52.4159 55.078L48.6666 57.945V51.0091C48.6666 50.6869 48.4055 50.4258 48.0833 50.4258C47.7611 50.4258 47.5 50.6869 47.5 51.0091V59.1253C47.5 59.3473 47.6259 59.55 47.8249 59.6483C48.0239 59.7466 48.2614 59.7235 48.4377 59.5887L53.7287 55.5428C53.8728 55.4326 53.9574 55.2617 53.9577 55.0802C53.958 54.8989 53.8738 54.7277 53.7301 54.6171Z" fill="#FF4948"/>
<path opacity="0.5" d="M96 48C96 74.5097 74.5097 96 48 96C21.4903 96 0 74.5097 0 48C0 21.4903 21.4903 0 48 0C74.5097 0 96 21.4903 96 48ZM4.70166 48C4.70166 71.913 24.087 91.2983 48 91.2983C71.913 91.2983 91.2983 71.913 91.2983 48C91.2983 24.087 71.913 4.70166 48 4.70166C24.087 4.70166 4.70166 24.087 4.70166 48Z" fill="#F68080"/>
<circle cx="47.5" cy="47.5" r="34.5" stroke="#FDD8D8" stroke-width="2" stroke-linecap="round"/>
</svg>
