<svg width="47" height="47" viewBox="0 0 47 47" fill="none" xmlns="http://www.w3.org/2000/svg">
<circle cx="23.5" cy="23.5" r="23.5" fill="white"/>
<path d="M32 32V30C32 28.9391 31.5786 27.9217 30.8284 27.1716C30.0783 26.4214 29.0609 26 28 26H20C18.9391 26 17.9217 26.4214 17.1716 27.1716C16.4214 27.9217 16 28.9391 16 30V32" stroke="#FF4948" stroke-width="2" stroke-linecap="round" stroke-linejoin="round"/>
<path d="M24 22C26.2091 22 28 20.2091 28 18C28 15.7909 26.2091 14 24 14C21.7909 14 20 15.7909 20 18C20 20.2091 21.7909 22 24 22Z" stroke="#FF4948" stroke-width="2" stroke-linecap="round" stroke-linejoin="round"/>
</svg>
