<svg width="53" height="52" viewBox="0 0 53 52" fill="none" xmlns="http://www.w3.org/2000/svg">
<circle cx="26.5486" cy="26.1149" r="25.4521" transform="rotate(-0.2397 26.5486 26.1149)" fill="white"/>
<path d="M32 16H22C19.2386 16 17 18.2386 17 21V31C17 33.7614 19.2386 36 22 36H32C34.7614 36 37 33.7614 37 31V21C37 18.2386 34.7614 16 32 16Z" stroke="#FF4948" stroke-width="2" stroke-linecap="round" stroke-linejoin="round"/>
<path d="M30.9997 25.3703C31.1231 26.2025 30.981 27.0525 30.5935 27.7993C30.206 28.5461 29.5929 29.1517 28.8413 29.53C28.0898 29.9082 27.2382 30.0399 26.4075 29.9062C25.5768 29.7726 24.8095 29.3804 24.2145 28.7855C23.6196 28.1905 23.2274 27.4232 23.0938 26.5925C22.9601 25.7619 23.0918 24.9102 23.47 24.1587C23.8483 23.4072 24.4539 22.794 25.2007 22.4065C25.9475 22.019 26.7975 21.8769 27.6297 22.0003C28.4786 22.1262 29.2646 22.5218 29.8714 23.1286C30.4782 23.7355 30.8738 24.5214 30.9997 25.3703Z" stroke="#FF4948" stroke-width="2" stroke-linecap="round" stroke-linejoin="round"/>
</svg>
