<svg width="96" height="96" viewBox="0 0 96 96" fill="none" xmlns="http://www.w3.org/2000/svg">
<path opacity="0.5" d="M96 48C96 74.5097 74.5097 96 48 96C21.4903 96 0 74.5097 0 48C0 21.4903 21.4903 0 48 0C74.5097 0 96 21.4903 96 48ZM4.70166 48C4.70166 71.913 24.087 91.2983 48 91.2983C71.913 91.2983 91.2983 71.913 91.2983 48C91.2983 24.087 71.913 4.70166 48 4.70166C24.087 4.70166 4.70166 24.087 4.70166 48Z" fill="#F68080"/>
<circle cx="47.5" cy="47.5" r="34.5" stroke="#FDD8D8" stroke-width="2" stroke-linecap="round"/>
<g clip-path="url(#clip0_14_68)">
<path d="M37.3878 39.5521C37.1362 39.3004 36.7281 39.3003 36.4763 39.552C34.9664 41.0616 34.1348 43.0672 34.1348 45.1993C34.1348 47.3315 34.9663 49.337 36.4763 50.8467C36.6022 50.9725 36.7671 51.0354 36.932 51.0354C37.097 51.0354 37.262 50.9724 37.3878 50.8465C37.6395 50.5948 37.6395 50.1867 37.3878 49.935C36.1213 48.6689 35.4239 46.9871 35.4239 45.1992C35.4239 43.4115 36.1213 41.7296 37.3878 40.4635C37.6395 40.2119 37.6395 39.8038 37.3878 39.5521Z" fill="#FF4948"/>
<path d="M55.3073 42.74C54.9514 42.74 54.6628 43.0286 54.6628 43.3845V44.3756H53.2094V37.5103C53.2094 34.3648 50.6474 31.8057 47.4984 31.8057C44.3504 31.8057 41.7893 34.3648 41.7893 37.5103V44.3756H40.3359V43.3846C40.3359 43.0287 40.0474 42.7401 39.6914 42.7401C39.3354 42.7401 39.0469 43.0287 39.0469 43.3846V47.187C39.0469 50.9726 41.5518 54.1845 44.9922 55.2543V58.7327H42.7627C41.5308 58.7327 40.5287 59.7335 40.5287 60.9635V62.3162C40.5287 62.8004 40.9235 63.1943 41.4089 63.1943H44.6044C44.9604 63.1943 45.2489 62.9057 45.2489 62.5498C45.2489 62.1939 44.9604 61.9053 44.6044 61.9053H41.8177V60.9635C41.8177 60.4442 42.2417 60.0218 42.7627 60.0218H52.236C52.7561 60.0218 53.1792 60.4443 53.1792 60.9635V61.9053H50.3926C50.0366 61.9053 49.748 62.1939 49.748 62.5498C49.748 62.9057 50.0366 63.1943 50.3926 63.1943H53.5899C54.0742 63.1943 54.4682 62.8004 54.4682 62.3162V60.9635C54.4682 59.7335 53.4668 58.7327 52.236 58.7327H50.0047V55.2544C53.4461 54.1848 55.9519 50.9728 55.9519 47.187V43.3846C55.9518 43.0286 55.6632 42.74 55.3073 42.74ZM43.0783 37.5103C43.0783 35.0756 45.0611 33.0947 47.4984 33.0947C49.9366 33.0947 51.9202 35.0756 51.9202 37.5103V39.6405H43.0783V37.5103ZM43.0783 40.9295H51.9203V42.6105H43.0783V40.9295ZM43.0783 43.8995H51.9203V47.187C51.9203 49.6217 49.9367 51.6026 47.4984 51.6026C45.0612 51.6026 43.0784 49.6217 43.0784 47.187V43.8995H43.0783ZM48.7156 58.7326H46.2812V55.5454C46.6788 55.603 47.0851 55.6334 47.4984 55.6334C47.9118 55.6334 48.3181 55.603 48.7157 55.5455V58.7326H48.7156ZM54.6628 47.187C54.6628 51.1335 51.4489 54.3443 47.4984 54.3443C43.549 54.3443 40.3359 51.1336 40.3359 47.187V45.6647H41.7893V47.187C41.7893 50.3325 44.3504 52.8916 47.4984 52.8916C50.6474 52.8916 53.2094 50.3325 53.2094 47.187V45.6647H54.6628V47.187Z" fill="#FF4948"/>
<path d="M60.7387 37.337C60.4869 37.0853 60.0787 37.0857 59.8272 37.3374C59.5757 37.5892 59.5758 37.9974 59.8277 38.249C61.6869 40.1066 62.7109 42.5751 62.7109 45.1997C62.7109 47.8243 61.6869 50.2928 59.8277 52.1504C59.5759 52.402 59.5757 52.8101 59.8273 53.062C59.9532 53.1879 60.1182 53.251 60.2832 53.251C60.4481 53.251 60.6129 53.188 60.7388 53.0624C62.8417 50.9612 64 48.1688 64 45.1997C64 42.2305 62.8417 39.4381 60.7387 37.337Z" fill="#FF4948"/>
<path d="M58.522 39.5519C58.27 39.3002 57.862 39.3005 57.6104 39.5522C57.3589 39.8041 57.3591 40.2122 57.6108 40.4638C58.878 41.7299 59.5759 43.4116 59.5759 45.1994C59.5759 46.9871 58.878 48.6689 57.6108 49.935C57.3591 50.1866 57.3589 50.5947 57.6104 50.8466C57.7363 50.9725 57.9014 51.0355 58.0664 51.0355C58.2312 51.0355 58.396 50.9726 58.5219 50.8469C60.0328 49.3373 60.865 47.3317 60.865 45.1994C60.865 43.0671 60.0329 41.0615 58.522 39.5519Z" fill="#FF4948"/>
<path d="M32.2891 45.1997C32.2891 42.575 33.3126 40.1065 35.171 38.2488C35.4228 37.9972 35.4229 37.5892 35.1712 37.3373C34.9195 37.0855 34.5115 37.0855 34.2597 37.3372C32.1576 39.4383 31 42.2306 31 45.1997C31 48.1688 32.1576 50.9612 34.2597 53.0622C34.3855 53.188 34.5505 53.251 34.7153 53.251C34.8803 53.251 35.0453 53.188 35.1712 53.062C35.4228 52.8103 35.4228 52.4022 35.171 52.1505C33.3126 50.2929 32.2891 47.8244 32.2891 45.1997Z" fill="#FF4948"/>
<path d="M47.498 61.9053C47.1421 61.9053 46.8535 62.1939 46.8535 62.5498C46.8535 62.9057 47.1421 63.1943 47.498 63.1943H47.5017C47.8576 63.1943 48.1445 62.9057 48.1445 62.5498C48.1445 62.1939 47.854 61.9053 47.498 61.9053Z" fill="#FF4948"/>
</g>
<defs>
<clipPath id="clip0_14_68">
<rect width="33" height="33" fill="white" transform="translate(31 31)"/>
</clipPath>
</defs>
</svg>
