<svg width="47" height="47" viewBox="0 0 47 47" fill="none" xmlns="http://www.w3.org/2000/svg">
<path d="M47 23.5C47 36.4787 36.4787 47 23.5 47C10.5213 47 0 36.4787 0 23.5C0 10.5213 10.5213 0 23.5 0C36.4787 0 47 10.5213 47 23.5Z" fill="white"/>
<path fill-rule="evenodd" clip-rule="evenodd" d="M23 14C19.134 14 16 17.134 16 21C16 24.866 19.134 28 23 28C26.866 28 30 24.866 30 21C30 17.134 26.866 14 23 14ZM14 21C14 16.0294 18.0294 12 23 12C27.9706 12 32 16.0294 32 21C32 25.9706 27.9706 30 23 30C18.0294 30 14 25.9706 14 21Z" fill="#FF4948"/>
<path fill-rule="evenodd" clip-rule="evenodd" d="M27.9433 25.9433C28.3338 25.5528 28.967 25.5528 29.3575 25.9433L33.7075 30.2933C34.098 30.6838 34.098 31.317 33.7075 31.7075C33.317 32.098 32.6838 32.098 32.2933 31.7075L27.9433 27.3575C27.5528 26.967 27.5528 26.3338 27.9433 25.9433Z" fill="#FF4948"/>
</svg>
