<svg width="26" height="24" viewBox="0 0 26 24" fill="none" xmlns="http://www.w3.org/2000/svg">
<path d="M11.8727 0.927051C12.1721 0.0057404 13.4755 0.0057404 13.7749 0.927051L16.0125 7.81383C16.1464 8.22585 16.5303 8.50481 16.9636 8.50481L24.2047 8.50481C25.1735 8.50481 25.5762 9.74443 24.7925 10.3138L18.9343 14.5701C18.5838 14.8247 18.4371 15.2761 18.571 15.6881L20.8087 22.5749C21.108 23.4962 20.0535 24.2623 19.2698 23.6929L13.4116 19.4367C13.0611 19.182 12.5865 19.182 12.236 19.4367L6.37777 23.6929C5.59406 24.2623 4.53958 23.4962 4.83893 22.5749L7.07658 15.6881C7.21045 15.2761 7.06379 14.8247 6.71331 14.5701L0.855065 10.3138C0.0713515 9.74443 0.474127 8.50481 1.44285 8.50481L8.68404 8.50481C9.11726 8.50481 9.50122 8.22585 9.63509 7.81383L11.8727 0.927051Z" fill="#FDAE38"/>
</svg>
