<svg width="52" height="52" viewBox="0 0 52 52" fill="none" xmlns="http://www.w3.org/2000/svg">
<circle cx="25.6638" cy="25.7155" r="25.4521" transform="rotate(-0.2397 25.6638 25.7155)" fill="white"/>
<path d="M37 19.0101C36.0424 19.6855 34.9821 20.2022 33.86 20.5401C33.2577 19.8476 32.4573 19.3567 31.567 19.134C30.6767 18.9112 29.7395 18.9673 28.8821 19.2945C28.0247 19.6218 27.2884 20.2045 26.773 20.9638C26.2575 21.7231 25.9877 22.6224 26 23.5401V24.5401C24.2426 24.5856 22.5013 24.1959 20.931 23.4055C19.3607 22.6151 18.0103 21.4487 17 20.0101C17 20.0101 13 29.0101 22 33.0101C19.9405 34.408 17.4872 35.109 15 35.0101C24 40.0101 35 35.0101 35 23.5101C34.9991 23.2315 34.9723 22.9537 34.92 22.6801C35.9406 21.6735 36.6608 20.4028 37 19.0101V19.0101Z" stroke="#FF4948" stroke-width="2" stroke-linecap="round" stroke-linejoin="round"/>
</svg>
