<svg width="779" height="633" viewBox="0 0 779 633" fill="none" xmlns="http://www.w3.org/2000/svg">
<g opacity="0.1">
<path d="M583.646 11.0069C583.646 11.0069 594.278 14.6916 590.687 17.1323C587.096 19.5731 575.174 50.9981 577.638 55.0817C580.103 59.1653 587.824 45.6941 592.33 50.1767C596.836 54.6592 590.288 65.6897 583.341 64.8683C576.394 64.0468 573.132 57.1235 574.775 48.44C576.418 39.7564 582.027 26.2148 582.731 23.2578C583.435 20.3007 580.267 18.7752 575.385 21.6149C570.504 24.4547 561.914 19.5731 559.45 14.2691C556.986 8.96515 559.051 -3.03913e-06 559.051 -3.03913e-06C559.051 -3.03913e-06 557.432 4.48257 565.575 6.52437C573.719 8.56617 580.807 9.78655 583.646 11.0069Z" fill="white"/>
<path d="M-18.3528 188.809C-13.0322 186.107 -7.86859 183.106 -2.88671 179.821C4.62337 174.798 8.8478 177.216 7.76823 180.548C6.68866 183.881 13.1426 207.514 22.7649 220C32.3872 232.485 31.4953 218.239 38.7472 215.775C45.9992 213.311 49.9185 220.469 44.3564 228.777C38.7942 237.085 26.2148 234.574 24.5485 229.481C22.8822 224.388 11.1008 202.069 7.60393 196.625C4.10705 191.18 1.52544 191.485 -4.81118 197.798C-7.51577 200.654 -10.8878 202.792 -14.624 204.021C-18.3601 205.25 -22.3432 205.531 -26.2149 204.839C-26.2149 204.839 -13.2365 229.716 -9.27028 237.695C-5.30402 245.675 -2.0184 255.766 3.82538 255.555C9.66916 255.344 16.2639 243.821 20.9108 250.861C25.5577 257.902 11.6875 269.895 4.22438 266.492C-3.23875 263.089 -7.81518 247.458 -13.3539 236.663C-18.8925 225.867 -34.9218 197.422 -33.9596 193.362C-32.9974 189.302 -25.5343 193.48 -18.3528 188.809Z" fill="white"/>
<path d="M132.132 236.662C135.894 234.748 139.546 232.625 143.069 230.302C148.396 226.758 151.307 228.471 150.603 230.818C149.898 233.165 154.405 249.898 161.211 258.723C168.017 267.547 167.383 257.479 172.523 255.742C177.662 254.005 180.408 259.075 176.465 264.942C172.523 270.809 163.651 269.026 162.384 265.435C158.865 257.472 154.868 249.729 150.415 242.248C147.927 238.446 146.097 238.61 141.614 243.069C139.696 245.08 137.31 246.585 134.668 247.449C132.027 248.313 129.212 248.51 126.476 248.021C126.476 248.021 135.653 265.599 138.469 271.208C141.285 276.817 143.585 283.999 147.857 283.858C152.128 283.717 156.634 275.503 159.92 280.572C163.205 285.642 153.395 294.044 148.185 291.626C142.975 289.209 139.666 278.179 135.77 270.504C131.874 262.83 120.515 242.764 121.196 239.994C121.877 237.225 126.993 239.971 132.132 236.662Z" fill="white"/>
<path d="M667.842 73.3818C671.584 71.4694 675.219 69.354 678.731 67.0451C684.059 63.4778 686.969 65.1911 686.265 67.538C685.561 69.8849 690.067 86.6183 696.873 95.4661C703.679 104.314 703.045 94.1987 708.185 92.462C713.324 90.7253 716.07 95.8181 712.127 101.662C708.185 107.506 699.313 105.745 698.046 102.155C694.527 94.1917 690.53 86.4485 686.077 78.9674C683.589 75.1654 681.759 75.3297 677.276 79.7888C675.38 81.7813 673.021 83.2756 670.409 84.1393C667.798 85.0031 665.013 85.2096 662.303 84.7407C662.303 84.7407 671.503 102.319 674.295 107.928C677.088 113.537 679.412 120.719 683.683 120.578C687.954 120.437 692.46 112.223 695.746 117.292C699.032 122.362 689.222 130.763 684.012 128.346C678.802 125.929 675.492 114.898 671.597 107.224C667.701 99.5497 656.342 79.4602 657.022 76.7143C657.703 73.9685 662.772 76.6909 667.842 73.3818Z" fill="white"/>
<path d="M200.742 65.509C200.742 65.509 212.852 69.7099 208.674 72.5497C204.497 75.3894 190.979 111.156 193.771 115.826C196.564 120.497 205.506 105.125 210.528 110.241C215.551 115.357 208.181 127.913 200.296 126.974C192.41 126.035 188.561 118.15 190.509 108.363C192.457 98.5767 198.888 82.7821 199.897 79.5199C200.906 76.2578 197.104 74.4037 191.518 77.6659C185.933 80.9281 176.17 75.319 173.377 69.2875C170.584 63.2559 172.908 53 172.908 53C172.908 53 171.053 58.1162 180.347 60.4397C189.641 62.7631 197.433 64.1243 200.742 65.509Z" fill="white"/>
<path d="M602.734 570.509C602.734 570.509 614.82 574.71 610.643 577.55C606.466 580.389 592.947 616.156 595.74 620.803C598.533 625.45 607.475 610.101 612.497 615.217C617.519 620.334 610.15 632.913 602.265 631.974C594.379 631.035 590.53 623.126 592.502 613.363C594.473 603.6 600.88 587.782 601.889 584.52C602.898 581.258 599.096 579.404 593.511 582.666C587.925 585.928 578.162 580.319 575.369 574.287C572.576 568.256 574.9 558 574.9 558C574.9 558 573.046 563.116 582.339 565.44C591.633 567.763 599.472 569.124 602.734 570.509Z" fill="white"/>
<path d="M162.36 496.886C162.36 496.886 174.47 501.087 170.269 503.927C166.068 506.766 152.597 542.533 155.39 547.227C158.183 551.921 167.007 536.525 172.147 541.641C177.286 546.757 169.8 559.313 161.891 558.375C153.982 557.436 150.274 549.55 152.128 539.764C153.982 529.977 160.506 514.182 161.515 510.92C162.524 507.658 158.723 505.804 153.137 509.066C147.551 512.328 137.765 506.719 134.972 500.688C132.179 494.656 134.526 484.4 134.526 484.4C134.526 484.4 132.649 489.517 141.966 491.84C151.283 494.163 159.098 495.595 162.36 496.886Z" fill="white"/>
<path d="M703.806 303.9C709.862 300.845 715.746 297.461 721.431 293.761C730.021 288.011 734.715 290.757 733.588 294.583C732.462 298.408 739.714 325.303 750.674 339.573C761.634 353.842 760.648 337.531 768.909 334.738C777.17 331.945 781.653 340.136 775.293 349.57C768.933 359.005 754.616 356.165 752.739 350.368C750.861 344.571 737.39 319.131 733.424 312.982C729.458 306.833 726.383 307.115 719.343 314.32C716.257 317.565 712.413 319.994 708.157 321.386C703.901 322.779 699.366 323.093 694.958 322.299C694.958 322.299 709.65 350.556 714.156 359.592C718.662 368.627 722.417 380.221 729.106 379.986C735.794 379.751 743.187 366.515 748.585 374.682C753.983 382.849 738.047 396.391 729.552 392.519C721.056 388.646 715.799 370.833 709.509 358.512C703.219 346.191 684.914 313.78 686.04 309.227C687.167 304.674 695.639 309.227 703.806 303.9Z" fill="white"/>
<path d="M-24.36 478.322C-21.1295 476.679 -17.9953 474.853 -14.9724 472.854C-10.396 469.803 -7.9318 471.281 -8.49505 473.3C-9.05831 475.318 -5.23286 489.728 0.610919 497.285C6.45469 504.842 5.93841 496.205 10.3271 494.703C14.7158 493.201 17.1331 497.59 13.7301 502.612C10.3271 507.635 2.72313 506.133 1.71396 503.058C-1.31997 496.21 -4.76035 489.548 -8.58888 483.11C-10.7011 479.848 -12.297 479.988 -16.1459 483.837C-17.7928 485.565 -19.8426 486.858 -22.1117 487.599C-24.3808 488.341 -26.7983 488.507 -29.1477 488.085C-29.1477 488.085 -21.2621 503.199 -18.8448 508.01C-16.4275 512.821 -14.4562 519.017 -10.8889 518.876C-7.32159 518.736 -3.33182 511.695 -0.515548 516.06C2.30073 520.425 -6.12465 527.63 -10.6542 525.448C-15.1837 523.265 -17.9765 513.878 -21.3326 507.306C-24.6887 500.735 -34.4517 483.462 -33.865 480.998C-33.2783 478.533 -28.7253 481.162 -24.36 478.322Z" fill="white"/>
</g>
</svg>
