<svg width="623" height="603" viewBox="0 0 623 603" fill="none" xmlns="http://www.w3.org/2000/svg">
<path d="M339.951 227.865C340.711 230.19 340.764 232.688 340.104 235.042C339.445 237.397 338.101 239.504 336.245 241.095C334.388 242.687 332.101 243.693 329.673 243.985C327.246 244.277 324.785 243.843 322.604 242.737C320.423 241.632 318.618 239.904 317.419 237.773C316.219 235.642 315.678 233.203 315.864 230.765C316.05 228.326 316.955 225.998 318.464 224.074C319.974 222.149 322.019 220.716 324.343 219.954C325.887 219.448 327.516 219.251 329.137 219.375C330.757 219.498 332.337 219.94 333.787 220.675C335.236 221.41 336.527 222.423 337.585 223.657C338.642 224.891 339.447 226.321 339.951 227.865V227.865Z" fill="#FFDCDC"/>
<path d="M336.878 224.503C336.473 225.123 325.607 217.903 314.121 206.822C302.635 195.742 293.604 186.782 294.009 186.258C294.414 185.733 304.613 193.788 316.003 204.844C327.394 215.901 337.402 223.884 336.878 224.503Z" fill="#FFDCDC"/>
<path d="M311.502 166.148C312.217 166.148 311.741 173.106 306.522 179.516C301.303 185.926 294.607 187.904 294.488 187.213C294.369 186.522 299.754 183.639 304.401 177.681C309.048 171.724 310.668 165.981 311.502 166.148Z" fill="#FFDCDC"/>
<path d="M320.198 175.536C320.936 175.536 320.746 182.422 315.194 188.308C309.641 194.194 302.802 194.933 302.826 194.218C302.85 193.503 308.426 191.716 313.216 186.45C318.005 181.183 319.459 175.393 320.198 175.536Z" fill="#FFDCDC"/>
<path d="M536.065 41.0926C536.45 42.2703 536.478 43.5359 536.145 44.7295C535.811 45.9231 535.132 46.9911 534.191 47.7984C533.251 48.6057 532.092 49.116 530.862 49.265C529.632 49.414 528.385 49.1948 527.279 48.6353C526.173 48.0757 525.258 47.2009 524.65 46.1214C524.041 45.0418 523.766 43.8061 523.86 42.5704C523.953 41.3346 524.411 40.1543 525.175 39.1787C525.94 38.2031 526.976 37.476 528.153 37.0893C528.936 36.8324 529.761 36.7321 530.582 36.7942C531.403 36.8564 532.204 37.0797 532.938 37.4515C533.673 37.8233 534.327 38.3362 534.864 38.961C535.4 39.5857 535.808 40.3101 536.065 41.0926V41.0926Z" fill="#FFDCDC"/>
<path d="M534.661 39.4248C530.384 37.0413 526.495 34.0201 523.128 30.4651C519.501 27.2241 516.101 23.7368 512.953 20.028C513.215 19.7182 518.315 23.8645 524.081 29.5596C529.848 35.2548 534.78 39.0912 534.661 39.4248Z" fill="#FFDCDC"/>
<path d="M521.649 9.82835C521.559 12.3014 520.67 14.6788 519.115 16.6036C517.559 18.5285 515.422 19.897 513.023 20.5038C512.856 20.1225 515.691 18.6927 518.051 15.7379C520.41 12.7831 521.244 9.73303 521.649 9.82835Z" fill="#FFDCDC"/>
<path d="M526.082 14.596C526.463 14.596 526.368 18.075 523.556 21.0536C522.824 22.0148 521.874 22.7883 520.785 23.3103C519.695 23.8323 518.497 24.088 517.289 24.0561C517.289 23.651 520.125 22.7932 522.531 20.1243C524.938 17.4555 525.677 14.5007 526.082 14.596Z" fill="#FFDCDC"/>
<path d="M342.453 56.3925C340.42 57.8021 338.015 58.5773 335.542 58.6202C333.068 58.6631 330.638 57.9717 328.557 56.6334C326.476 55.2952 324.839 53.3702 323.853 51.1017C322.866 48.8332 322.574 46.3231 323.014 43.8887C323.453 41.4543 324.605 39.2049 326.322 37.4248C328.04 35.6447 330.247 34.4138 332.664 33.8877C335.082 33.3616 337.6 33.564 339.903 34.4693C342.205 35.3745 344.187 36.942 345.599 38.9735C347.487 41.702 348.216 45.0679 347.626 48.3332C347.037 51.5984 345.176 54.4967 342.453 56.3925V56.3925Z" fill="#FFDCDC"/>
<path d="M344.838 52.5312C343.695 52.15 347.221 39.3776 354.727 25.0325C362.234 10.6874 368.572 -0.416905 369.621 0.0120176C370.669 0.44094 366.046 12.8082 358.612 26.9865C351.177 41.1648 345.982 52.9125 344.838 52.5312Z" fill="#FFDCDC"/>
<path d="M401.383 25.1283C401.383 26.1291 390.922 26.01 380.342 19.0519C375.744 16.1995 372.031 12.1235 369.619 7.28031C367.832 3.44384 368.285 0.655855 368.809 0.632026C369.333 0.608197 370.119 2.82428 372.288 5.75526C375.164 9.59001 378.708 12.8753 382.749 15.4537C392.209 21.7446 401.693 23.8177 401.383 25.1283Z" fill="#FFDCDC"/>
<path d="M374.218 81.5306C372.183 82.9368 369.777 83.7083 367.304 83.7474C364.831 83.7866 362.401 83.0917 360.323 81.7506C358.245 80.4095 356.61 78.4824 355.627 76.2128C354.644 73.9432 354.355 71.4329 354.798 68.9994C355.241 66.5658 356.395 64.3181 358.115 62.5403C359.834 60.7626 362.043 59.5346 364.46 59.0115C366.878 58.4884 369.396 58.6937 371.697 59.6015C373.998 60.5092 375.978 62.0787 377.387 64.1116C378.324 65.463 378.985 66.9859 379.333 68.5931C379.681 70.2003 379.708 71.8603 379.414 73.4782C379.12 75.096 378.509 76.6399 377.618 78.0216C376.726 79.4033 375.571 80.5957 374.218 81.5306V81.5306Z" fill="#FFDCDC"/>
<path d="M376.626 77.6699C375.459 77.2887 379.009 64.5163 386.515 50.1712C394.022 35.8261 400.36 24.7218 401.409 25.1507C402.457 25.5796 397.81 37.9469 390.4 52.1252C382.989 66.3035 377.746 78.0512 376.626 77.6699Z" fill="#FFDCDC"/>
<path d="M397.809 32.8971C397.809 34.0409 387.92 34.5651 377.769 28.3934C367.618 22.2217 363.352 13.262 364.377 12.8092C365.401 12.3565 370.811 19.2669 380.009 24.7238C389.207 30.1806 397.928 31.6342 397.809 32.8971Z" fill="#FFDCDC"/>
<path d="M427.24 209.99C426.446 211.706 425.161 213.147 423.547 214.13C421.933 215.113 420.063 215.594 418.175 215.512C416.287 215.43 414.466 214.789 412.943 213.67C411.421 212.551 410.265 211.004 409.623 209.227C408.981 207.449 408.882 205.521 409.339 203.687C409.796 201.853 410.787 200.196 412.187 198.927C413.587 197.658 415.333 196.834 417.203 196.559C419.073 196.285 420.982 196.572 422.688 197.385C424.953 198.464 426.701 200.393 427.553 202.753C428.405 205.113 428.293 207.713 427.24 209.99V209.99Z" fill="#FFDCDC"/>
<path d="M427.429 206.561C426.523 206.752 424.021 197.03 423.449 184.782C422.877 172.533 422.83 162.835 423.664 162.716C424.498 162.597 426.19 172.462 426.714 184.591C427.238 196.72 428.215 206.371 427.429 206.561Z" fill="#FFDCDC"/>
<path d="M453.949 167.1C454.331 167.767 447.42 171.652 437.865 171.127C433.768 171.004 429.784 169.751 426.355 167.505C423.734 165.647 422.948 163.669 423.281 163.454C423.615 163.24 424.973 164.408 427.523 165.48C430.863 166.898 434.43 167.705 438.055 167.863C446.634 168.363 453.639 166.099 453.949 167.1Z" fill="#FFDCDC"/>
<path d="M457.62 214.376C456.827 216.091 455.542 217.532 453.928 218.515C452.314 219.499 450.444 219.98 448.556 219.898C446.668 219.816 444.847 219.175 443.324 218.056C441.802 216.936 440.646 215.39 440.004 213.612C439.362 211.835 439.263 209.907 439.72 208.073C440.176 206.239 441.168 204.582 442.568 203.313C443.968 202.044 445.714 201.22 447.584 200.945C449.454 200.67 451.363 200.958 453.069 201.771C455.334 202.85 457.082 204.779 457.934 207.138C458.786 209.498 458.674 212.099 457.62 214.376V214.376Z" fill="#FFDCDC"/>
<path d="M457.716 210.993C456.834 211.207 454.308 201.461 453.736 189.213C453.164 176.965 453.117 167.29 453.951 167.171C454.785 167.052 456.5 176.917 457.025 189.046C457.549 201.175 458.597 210.754 457.716 210.993Z" fill="#FFDCDC"/>
<path d="M454.571 173.534C455.048 174.249 448.709 178.3 439.725 178.3C430.742 178.3 424.499 173.892 425.023 173.201C425.547 172.51 431.695 174.964 439.773 175.012C447.851 175.059 454.166 172.653 454.571 173.534Z" fill="#FFDCDC"/>
<path d="M545.312 190.048C544.603 190.49 543.779 190.712 542.945 190.685C542.11 190.659 541.302 190.385 540.623 189.898C539.944 189.412 539.424 188.735 539.131 187.953C538.837 187.171 538.782 186.32 538.973 185.506C539.164 184.693 539.591 183.955 540.202 183.385C540.813 182.816 541.579 182.44 542.404 182.306C543.228 182.173 544.074 182.287 544.833 182.634C545.593 182.981 546.232 183.546 546.67 184.258C547.255 185.206 547.44 186.348 547.185 187.433C546.931 188.518 546.257 189.458 545.312 190.048Z" fill="#FFDCDC"/>
<path d="M546.171 188.808C545.79 188.665 547.244 184.423 549.984 179.705C551.458 176.773 553.291 174.035 555.441 171.556C555.822 171.746 554.011 175.797 551.271 180.444C549.819 183.376 548.113 186.175 546.171 188.808V188.808Z" fill="#FFDCDC"/>
<path d="M565.637 180.563C563.087 180.72 560.578 179.864 558.655 178.181C557.17 177.133 556 175.699 555.272 174.034C554.724 172.7 554.938 171.771 555.105 171.794C555.272 171.818 555.51 172.557 556.177 173.582C557.085 174.916 558.223 176.077 559.537 177.013C562.659 179.277 565.804 180.135 565.637 180.563Z" fill="#FFDCDC"/>
<path d="M555.557 199.078C554.847 199.514 554.023 199.729 553.19 199.697C552.357 199.665 551.553 199.387 550.878 198.898C550.203 198.409 549.688 197.731 549.398 196.949C549.108 196.168 549.056 195.318 549.249 194.507C549.442 193.696 549.871 192.96 550.481 192.393C551.092 191.826 551.857 191.452 552.679 191.319C553.502 191.186 554.346 191.299 555.104 191.646C555.862 191.992 556.501 192.555 556.94 193.264C557.232 193.736 557.428 194.261 557.516 194.809C557.605 195.357 557.584 195.918 557.456 196.458C557.327 196.998 557.094 197.508 556.768 197.957C556.442 198.407 556.031 198.788 555.557 199.078Z" fill="#FFDCDC"/>
<path d="M556.442 197.814C556.06 197.671 557.49 193.429 560.254 188.735C561.732 185.803 563.556 183.059 565.687 180.562C566.092 180.752 564.257 184.827 561.517 189.45C560.079 192.384 558.38 195.183 556.442 197.814V197.814Z" fill="#FFDCDC"/>
<path d="M564.353 183.113C564.353 183.494 560.993 183.494 557.681 181.254C554.368 179.014 553.105 175.916 553.463 175.773C553.82 175.63 555.512 178.156 558.515 180.039C561.517 181.921 564.424 182.684 564.353 183.113Z" fill="#FFDCDC"/>
<path d="M266.678 340.911C265.612 341.572 264.374 341.902 263.121 341.859C261.868 341.816 260.655 341.403 259.637 340.671C258.619 339.939 257.841 338.922 257.401 337.748C256.961 336.573 256.879 335.295 257.166 334.074C257.453 332.853 258.095 331.745 259.012 330.89C259.929 330.034 261.079 329.47 262.317 329.268C263.554 329.066 264.824 329.236 265.965 329.756C267.106 330.276 268.067 331.123 268.727 332.189C269.611 333.618 269.891 335.339 269.507 336.974C269.123 338.609 268.105 340.025 266.678 340.911V340.911Z" fill="#FFDCDC"/>
<path d="M267.99 339.026C267.418 338.811 269.562 332.425 273.709 325.396C277.855 318.366 281.382 312.885 281.882 313.124C282.382 313.362 279.737 319.51 275.615 326.468C271.492 333.426 268.561 339.24 267.99 339.026Z" fill="#FFDCDC"/>
<path d="M297.299 326.658C297.299 327.182 291.985 326.825 286.814 323.036C284.566 321.481 282.799 319.326 281.715 316.816C280.905 314.815 281.191 313.433 281.453 313.433C281.715 313.433 282.072 314.576 283.097 316.125C284.444 318.134 286.148 319.879 288.125 321.272C292.724 324.704 297.466 325.991 297.299 326.658Z" fill="#FFDCDC"/>
<path d="M282.071 354.445C281.006 355.109 279.767 355.441 278.512 355.4C277.258 355.359 276.043 354.947 275.024 354.215C274.004 353.483 273.224 352.464 272.784 351.289C272.343 350.113 272.262 348.833 272.55 347.611C272.838 346.39 273.482 345.281 274.401 344.425C275.32 343.57 276.472 343.007 277.711 342.807C278.951 342.608 280.221 342.78 281.362 343.304C282.503 343.827 283.463 344.678 284.12 345.747C284.997 347.174 285.273 348.889 284.889 350.519C284.505 352.148 283.492 353.56 282.071 354.445V354.445Z" fill="#FFDCDC"/>
<path d="M283.408 352.56C282.836 352.346 284.98 345.983 289.127 338.93C293.273 331.876 296.776 326.42 297.3 326.658C297.824 326.896 295.155 333.044 291.033 340.026C286.91 347.008 283.956 352.775 283.408 352.56Z" fill="#FFDCDC"/>
<path d="M295.273 330.496C295.273 331.068 290.245 331.068 285.265 327.684C280.284 324.301 278.378 319.654 278.902 319.463C279.427 319.273 282 322.895 286.504 325.873C291.007 328.852 295.368 329.853 295.273 330.496Z" fill="#FFDCDC"/>
<path d="M163.247 532.835C155.599 529.599 148.504 525.186 142.22 519.757C135.751 514.357 130.197 507.946 125.773 500.773C124.666 498.994 123.652 497.159 122.733 495.276L120.153 489.537C119.418 487.567 118.887 485.519 118.246 483.524C117.98 482.5 117.604 481.529 117.385 480.493L116.909 477.412C116.64 475.321 116.156 473.261 116.068 471.197L115.827 464.901C115.803 462.824 115.955 460.749 116.28 458.698L117.125 452.567C116.92 460.791 117.805 469.006 119.758 476.997C120.15 478.973 120.695 480.916 121.389 482.808C122.07 484.669 122.67 486.599 123.426 488.465L125.982 493.913C126.876 495.704 127.867 497.445 128.949 499.13C133.197 505.99 138.293 512.288 144.117 517.875C147.036 520.71 150.123 523.369 153.359 525.836C156.508 528.371 159.81 530.708 163.247 532.835Z" fill="#FBBFBF"/>
<path d="M152.894 566.001C141.675 561.177 131.249 554.685 121.97 546.745C112.497 538.896 104.357 529.565 97.8662 519.115C94.6772 513.822 91.9555 508.261 89.732 502.496C87.5589 496.747 85.9429 490.803 84.9062 484.745C82.9091 472.662 83.1514 460.315 85.6211 448.32C85.0846 454.341 84.9522 460.392 85.2249 466.431C85.4503 472.426 86.2067 478.389 87.4853 484.25C90.0227 495.923 94.5358 507.076 100.83 517.229C107.159 527.394 114.87 536.63 123.742 544.671C128.164 548.75 132.826 552.559 137.704 556.079C142.547 559.711 147.621 563.025 152.894 566.001Z" fill="#FBBFBF"/>
<path d="M138.223 595.555C124.228 589.539 111.223 581.441 99.649 571.537C87.8329 561.746 77.6794 550.107 69.5823 537.072C65.6044 530.469 62.2094 523.533 59.4359 516.341C56.7252 509.17 54.7095 501.756 53.4164 494.2C50.9252 479.128 51.2274 463.726 54.3081 448.764C53.6388 456.275 53.4737 463.822 53.8138 471.355C54.095 478.833 55.0385 486.271 56.6335 493.582C59.7985 508.142 65.428 522.055 73.2789 534.719C81.1737 547.399 90.7926 558.919 101.86 568.95C107.375 574.037 113.19 578.789 119.275 583.18C125.316 587.71 131.646 591.844 138.223 595.555Z" fill="#FBBFBF"/>
<path d="M465.857 423.809C468.803 431.978 470.462 440.559 470.774 449.243C471.194 458.008 470.206 466.787 467.847 475.248C467.292 477.37 466.613 479.458 465.815 481.502L463.224 487.6C462.221 489.566 461.033 491.438 459.943 493.333C459.434 494.303 458.868 495.243 458.25 496.148L456.198 498.726C454.787 500.443 453.561 502.254 452.008 503.809L447.339 508.395C445.761 509.904 444.048 511.266 442.222 512.463C440.405 513.595 438.708 514.988 436.928 516.181C443.424 510.625 449.156 504.235 453.973 497.179C455.226 495.489 456.33 493.693 457.272 491.812C458.233 489.914 459.209 488.174 460.194 486.178L462.644 480.46C463.384 478.496 464.016 476.493 464.539 474.46C466.781 466.308 467.99 457.909 468.135 449.462C468.246 445.207 468.092 440.95 467.676 436.715C467.354 432.377 466.746 428.065 465.857 423.809Z" fill="#FBBFBF"/>
<path d="M498.504 408.018C502.808 420.053 505.288 432.66 505.86 445.415C506.592 458.262 505.269 471.134 501.941 483.541C500.224 489.74 497.962 495.771 495.181 501.565C492.353 507.329 488.967 512.8 485.072 517.898C477.304 528.026 467.724 536.614 456.817 543.227C461.794 539.364 466.496 535.159 470.888 530.64C475.291 526.234 479.288 521.439 482.832 516.313C489.928 506.067 495.224 494.675 498.491 482.626C501.725 470.535 503.269 458.044 503.081 445.51C502.946 432.892 501.401 420.323 498.474 408.036L498.504 408.018Z" fill="#FBBFBF"/>
<path d="M533.494 391.183C539.323 407.482 542.682 424.554 543.457 441.828C544.447 459.226 542.656 476.657 538.149 493.459C535.824 501.854 532.76 510.022 528.995 517.868C525.164 525.675 520.578 533.083 515.304 539.987C504.784 553.703 491.811 565.334 477.04 574.289C483.78 569.058 490.147 563.362 496.095 557.242C502.058 551.276 507.471 544.783 512.27 537.84C521.88 523.966 529.052 508.538 533.477 492.22C537.856 475.846 539.948 458.93 539.693 441.956C539.51 424.869 537.417 407.847 533.453 391.208L533.494 391.183Z" fill="#FBBFBF"/>
</svg>
