<svg width="1236" height="294" viewBox="0 0 1236 294" fill="none" xmlns="http://www.w3.org/2000/svg">
<g opacity="0.5">
<path d="M44.2531 239.604C44.7297 241.051 44.9127 242.58 44.7916 244.099C44.6705 245.618 44.2475 247.098 43.5476 248.452C42.8476 249.806 41.8846 251.007 40.715 251.985C39.5454 252.962 38.1927 253.696 36.7359 254.145C33.7889 255.145 30.5651 254.936 27.7727 253.561C24.9802 252.187 22.8473 249.761 21.8424 246.815C21.3658 245.368 21.1827 243.839 21.3038 242.32C21.425 240.8 21.8479 239.32 22.5479 237.966C23.2478 236.612 24.2108 235.412 25.3804 234.434C26.55 233.457 27.9028 232.723 29.3596 232.274C32.3066 231.273 35.5303 231.483 38.3228 232.857C41.1152 234.232 43.2481 236.658 44.2531 239.604Z" fill="#FCB2B1"/>
<path d="M41.3178 236.501C40.9184 237.065 30.5823 230.346 19.6353 220.057C8.68837 209.768 0.0905786 201.405 0.48993 200.912C0.889282 200.418 10.5912 207.959 21.4207 218.225C32.2501 228.49 41.7406 235.914 41.3178 236.501Z" fill="#FCB2B1"/>
<path d="M17.074 182.191C17.7553 182.191 17.2854 188.675 12.3758 194.641C7.46607 200.608 1.07645 202.441 0.912012 201.689C0.747573 200.937 5.93915 198.377 10.3085 192.95C14.6779 187.524 16.3223 182.027 17.074 182.191Z" fill="#FCB2B1"/>
<path d="M25.4595 190.928C26.1408 190.928 25.9763 197.342 20.7613 202.815C15.5462 208.289 9.01562 208.993 9.01562 208.312C9.01562 207.631 14.3481 205.963 18.9055 201.077C23.4628 196.191 24.6608 190.788 25.4595 190.928Z" fill="#FCB2B1"/>
<path d="M44.019 95.4843C39.3146 98.6554 33.561 99.8721 27.9755 98.8768C22.39 97.8816 17.4108 94.7526 14.0911 90.1517C12.4872 87.8899 11.3541 85.3287 10.7592 82.6205C10.1643 79.9122 10.1198 77.112 10.6281 74.3861C11.1365 71.6603 12.1874 69.0644 13.7185 66.7526C15.2496 64.4408 17.2297 62.4603 19.5411 60.9286C24.2427 57.755 29.9944 56.5346 35.5796 57.5254C41.1649 58.5162 46.1458 61.6405 49.469 66.2376C51.0735 68.5013 52.207 71.0643 52.8021 73.7744C53.3973 76.4846 53.4421 79.2866 52.9338 82.0144C52.4255 84.7421 51.3745 87.34 49.8431 89.6538C48.3117 91.9677 46.3312 93.9504 44.019 95.4843Z" fill="#FCB2B1"/>
<path d="M48.1315 89.0009C46.1582 88.3901 52.3129 66.9191 65.1392 42.8405C77.9654 18.7619 88.8889 0.0628445 90.7212 0.791074C92.5535 1.5193 84.5665 22.3091 71.9281 46.1058C59.2898 69.9025 50.0813 89.6351 48.1315 89.0009Z" fill="#FCB2B1"/>
<path d="M145.267 43.0042C145.267 44.7191 127.249 44.4842 109.067 32.8325C101.211 28.0764 94.8341 21.2276 90.6498 13.0528C87.596 6.59273 88.3007 1.91797 89.2404 1.91797C90.18 1.91797 91.5895 5.5826 95.2306 10.5158C100.212 16.9552 106.296 22.4593 113.201 26.7718C129.551 37.3193 145.854 40.7726 145.267 43.0042Z" fill="#FCB2B1"/>
<path d="M98.6605 137.697C93.9589 140.871 88.2072 142.091 82.622 141.101C77.0367 140.11 72.0558 136.985 68.7326 132.388C67.1206 130.123 65.981 127.557 65.3817 124.842C64.7823 122.127 64.7355 119.319 65.2441 116.586C65.7526 113.852 66.8061 111.249 68.3417 108.931C69.8774 106.614 71.8638 104.629 74.1826 103.095C78.8834 99.9249 84.6332 98.7089 90.2149 99.7042C95.7965 100.7 100.772 103.828 104.087 108.427C105.7 110.689 106.84 113.253 107.441 115.965C108.042 118.677 108.091 121.482 107.584 124.214C107.078 126.945 106.027 129.547 104.494 131.863C102.961 134.18 100.977 136.164 98.6605 137.697Z" fill="#FCB2B1"/>
<path d="M102.772 131.284C100.799 130.673 106.954 109.178 119.78 85.0999C132.606 61.0214 143.576 42.3693 145.362 43.074C147.147 43.7788 139.207 64.592 126.428 88.4122C113.649 112.232 104.722 131.848 102.772 131.284Z" fill="#FCB2B1"/>
<path d="M139.207 56.1143C139.372 57.9936 122.199 58.8863 104.745 48.5501C87.2913 38.214 79.9621 23.0621 81.8414 22.2869C83.6737 21.1123 92.8823 33.1399 108.692 42.231C124.502 51.3221 139.419 53.9062 139.207 56.1143Z" fill="#FCB2B1"/>
<path d="M157.365 276.297C155.577 277.371 153.441 277.709 151.408 277.24C149.375 276.771 147.603 275.532 146.465 273.784C145.92 272.919 145.554 271.954 145.387 270.945C145.221 269.937 145.258 268.905 145.497 267.911C145.735 266.917 146.171 265.981 146.777 265.158C147.383 264.335 148.148 263.642 149.026 263.119C150.815 262.032 152.958 261.686 154.998 262.156C157.039 262.625 158.815 263.873 159.949 265.632C160.497 266.497 160.865 267.464 161.031 268.474C161.197 269.484 161.159 270.517 160.918 271.512C160.677 272.507 160.238 273.444 159.628 274.266C159.017 275.088 158.248 275.779 157.365 276.297Z" fill="#FCB2B1"/>
<path d="M159.008 273.969C158.28 273.71 160.981 265.911 166.173 257.29C171.364 248.669 175.757 242.021 176.391 242.303C177.026 242.584 173.713 250.102 168.545 258.746C163.377 267.391 159.712 274.251 159.008 273.969Z" fill="#FCB2B1"/>
<path d="M195.678 258.864C195.678 259.499 189.03 259.076 182.57 254.448C179.777 252.542 177.565 249.899 176.181 246.813C175.17 244.464 175.546 242.679 175.875 242.702C176.204 242.726 176.627 244.088 177.919 245.968C179.609 248.437 181.734 250.578 184.191 252.287C189.899 256.468 195.913 258.136 195.678 258.864Z" fill="#FCB2B1"/>
<path d="M176.649 292.835C174.863 293.92 172.724 294.265 170.688 293.795C168.651 293.326 166.879 292.079 165.749 290.321C165.204 289.458 164.838 288.495 164.672 287.488C164.506 286.481 164.543 285.452 164.782 284.459C165.021 283.467 165.456 282.533 166.062 281.712C166.668 280.891 167.432 280.2 168.31 279.679C170.095 278.594 172.235 278.249 174.271 278.719C176.307 279.188 178.08 280.435 179.21 282.193C179.754 283.056 180.12 284.019 180.286 285.026C180.453 286.033 180.415 287.062 180.176 288.054C179.938 289.046 179.503 289.981 178.897 290.802C178.291 291.623 177.527 292.314 176.649 292.835Z" fill="#FCB2B1"/>
<path d="M178.295 290.533C177.567 290.274 180.268 282.475 185.46 273.854C190.651 265.233 195.044 258.561 195.678 258.867C196.313 259.172 193 266.666 187.832 275.193C182.664 283.72 179 290.815 178.295 290.533Z" fill="#FCB2B1"/>
<path d="M193.165 263.542C193.165 264.247 186.846 264.247 180.644 260.112C174.443 255.978 172 250.293 172.681 250.058C173.362 249.823 176.533 254.263 182.077 257.88C187.621 261.498 193.283 262.837 193.165 263.542Z" fill="#FCB2B1"/>
<path d="M1118.19 72.0398C1118.68 73.5556 1118.87 75.1547 1118.74 76.7442C1118.61 78.3336 1118.17 79.8816 1117.44 81.2981C1116.71 82.7146 1115.7 83.9714 1114.48 84.9953C1113.25 86.0192 1111.84 86.7897 1110.32 87.2622C1107.23 88.2689 1103.88 88.0288 1100.97 86.5934C1098.06 85.1579 1095.82 82.641 1094.74 79.5805C1094.25 78.0647 1094.06 76.4656 1094.19 74.8762C1094.32 73.2868 1094.76 71.7388 1095.49 70.3222C1096.22 68.9057 1097.23 67.649 1098.45 66.6251C1099.68 65.6012 1101.09 64.8306 1102.61 64.3582C1105.7 63.3515 1109.05 63.5915 1111.96 65.027C1114.87 66.4624 1117.11 68.9794 1118.19 72.0398Z" fill="#FCB2B1"/>
<path d="M1115.2 68.7734C1114.78 69.3841 1103.95 62.3602 1092.51 51.5777C1081.07 40.7952 1072.05 32.0565 1072.47 31.5397C1072.9 31.0229 1083.04 38.8924 1094.37 49.6515C1105.69 60.4105 1115.63 68.1861 1115.2 68.7734Z" fill="#FCB2B1"/>
<path d="M1089.84 11.9731C1090.54 11.9731 1090.05 18.7621 1084.86 24.9873C1079.66 31.2125 1073.11 33.1623 1072.87 32.481C1072.64 31.7998 1078.11 29.0278 1082.74 23.3194C1087.37 17.6111 1089.04 11.8087 1089.84 11.9731Z" fill="#FCB2B1"/>
<path d="M1098.55 21.1345C1099.28 21.1345 1099.09 27.8295 1093.57 33.5614C1088.05 39.2932 1081.21 40.0215 1081.24 39.2932C1081.26 38.565 1086.8 36.9441 1091.57 31.7525C1096.34 26.561 1097.77 20.8761 1098.55 21.1345Z" fill="#FCB2B1"/>
<path d="M1166.68 234.812C1164.2 239.722 1159.88 243.459 1154.67 245.217C1149.46 246.975 1143.76 246.613 1138.82 244.208C1136.35 243.077 1134.13 241.467 1132.29 239.471C1130.45 237.476 1129.03 235.135 1128.1 232.584C1127.18 230.033 1126.77 227.324 1126.89 224.613C1127.02 221.903 1127.69 219.245 1128.86 216.794C1131.34 211.884 1135.65 208.147 1140.86 206.389C1146.07 204.631 1151.77 204.993 1156.72 207.397C1159.18 208.526 1161.4 210.135 1163.25 212.13C1165.09 214.125 1166.51 216.467 1167.44 219.018C1168.37 221.57 1168.78 224.28 1168.64 226.992C1168.51 229.703 1167.84 232.361 1166.68 234.812Z" fill="#FCB2B1"/>
<path d="M1166.91 227.363C1164.93 227.763 1159.46 206.621 1158.28 180.146C1157.11 153.671 1157.06 132.67 1158.94 132.459C1160.82 132.247 1164.46 153.601 1165.54 179.841C1166.62 206.08 1168.88 227.011 1166.91 227.363Z" fill="#FCB2B1"/>
<path d="M1226.01 142.843C1226.81 144.323 1211.57 152.521 1190.43 151.112C1181.38 150.702 1172.61 147.853 1165.05 142.866C1159.25 138.826 1157.58 134.48 1158.31 134.057C1159.04 133.634 1162.05 136.124 1167.71 138.567C1175.07 141.734 1182.92 143.579 1190.92 144.017C1209.85 145.38 1225.31 140.682 1226.01 142.843Z" fill="#FCB2B1"/>
<path d="M1233.74 245.218C1231.26 250.133 1226.95 253.874 1221.74 255.632C1216.52 257.391 1210.83 257.026 1205.88 254.615C1203.42 253.483 1201.2 251.874 1199.37 249.88C1197.53 247.887 1196.11 245.548 1195.18 243C1194.25 240.452 1193.84 237.746 1193.97 235.038C1194.1 232.33 1194.76 229.674 1195.92 227.224C1198.4 222.308 1202.72 218.567 1207.94 216.808C1213.15 215.05 1218.85 215.416 1223.8 217.828C1226.27 218.961 1228.48 220.572 1230.31 222.567C1232.15 224.561 1233.57 226.9 1234.49 229.448C1235.42 231.996 1235.83 234.701 1235.7 237.408C1235.57 240.116 1234.9 242.77 1233.74 245.218Z" fill="#FCB2B1"/>
<path d="M1234 237.77C1232.03 238.169 1226.53 217.027 1225.36 190.553C1224.18 164.078 1224.13 143.077 1226.01 142.842C1227.89 142.607 1231.53 163.984 1232.61 190.247C1233.69 216.51 1235.95 237.394 1234 237.77Z" fill="#FCB2B1"/>
<path d="M1227.35 156.796C1228.43 158.347 1214.38 167.109 1194.46 166.475C1174.54 165.84 1160.92 156.42 1162.05 154.94C1162.99 153.085 1176.75 159.004 1194.6 159.357C1212.46 159.709 1226.41 154.893 1227.35 156.796Z" fill="#FCB2B1"/>
</g>
</svg>
